<svg width="300" height="300" viewBox="0 0 300 300" fill="none" xmlns="http://www.w3.org/2000/svg">
<path d="M300 0H0V300H300V0Z" fill="white"/>
<path d="M33 25.5H25.5V33H33V25.5Z" fill="black"/>
<path d="M40.5 25.5H33V33H40.5V25.5Z" fill="black"/>
<path d="M48 25.5H40.5V33H48V25.5Z" fill="black"/>
<path d="M55.5 25.5H48V33H55.5V25.5Z" fill="black"/>
<path d="M63 25.5H55.5V33H63V25.5Z" fill="black"/>
<path d="M70.5 25.5H63V33H70.5V25.5Z" fill="black"/>
<path d="M78 25.5H70.5V33H78V25.5Z" fill="black"/>
<path d="M108 25.5H100.5V33H108V25.5Z" fill="black"/>
<path d="M123 25.5H115.5V33H123V25.5Z" fill="black"/>
<path d="M130.5 25.5H123V33H130.5V25.5Z" fill="black"/>
<path d="M138 25.5H130.5V33H138V25.5Z" fill="black"/>
<path d="M153 25.5H145.5V33H153V25.5Z" fill="black"/>
<path d="M160.5 25.5H153V33H160.5V25.5Z" fill="black"/>
<path d="M168 25.5H160.5V33H168V25.5Z" fill="black"/>
<path d="M175.5 25.5H168V33H175.5V25.5Z" fill="black"/>
<path d="M183 25.5H175.5V33H183V25.5Z" fill="black"/>
<path d="M190.5 25.5H183V33H190.5V25.5Z" fill="black"/>
<path d="M198 25.5H190.5V33H198V25.5Z" fill="black"/>
<path d="M205.5 25.5H198V33H205.5V25.5Z" fill="black"/>
<path d="M228 25.5H220.5V33H228V25.5Z" fill="black"/>
<path d="M235.5 25.5H228V33H235.5V25.5Z" fill="black"/>
<path d="M243 25.5H235.5V33H243V25.5Z" fill="black"/>
<path d="M250.5 25.5H243V33H250.5V25.5Z" fill="black"/>
<path d="M258 25.5H250.5V33H258V25.5Z" fill="black"/>
<path d="M265.5 25.5H258V33H265.5V25.5Z" fill="black"/>
<path d="M273 25.5H265.5V33H273V25.5Z" fill="black"/>
<path d="M33 33H25.5V40.5H33V33Z" fill="black"/>
<path d="M78 33H70.5V40.5H78V33Z" fill="black"/>
<path d="M93 33H85.5V40.5H93V33Z" fill="black"/>
<path d="M108 33H100.5V40.5H108V33Z" fill="black"/>
<path d="M145.5 33H138V40.5H145.5V33Z" fill="black"/>
<path d="M153 33H145.5V40.5H153V33Z" fill="black"/>
<path d="M168 33H160.5V40.5H168V33Z" fill="black"/>
<path d="M183 33H175.5V40.5H183V33Z" fill="black"/>
<path d="M228 33H220.5V40.5H228V33Z" fill="black"/>
<path d="M273 33H265.5V40.5H273V33Z" fill="black"/>
<path d="M33 40.5H25.5V48H33V40.5Z" fill="black"/>
<path d="M48 40.5H40.5V48H48V40.5Z" fill="black"/>
<path d="M55.5 40.5H48V48H55.5V40.5Z" fill="black"/>
<path d="M63 40.5H55.5V48H63V40.5Z" fill="black"/>
<path d="M78 40.5H70.5V48H78V40.5Z" fill="black"/>
<path d="M123 40.5H115.5V48H123V40.5Z" fill="black"/>
<path d="M145.5 40.5H138V48H145.5V40.5Z" fill="black"/>
<path d="M175.5 40.5H168V48H175.5V40.5Z" fill="black"/>
<path d="M183 40.5H175.5V48H183V40.5Z" fill="black"/>
<path d="M190.5 40.5H183V48H190.5V40.5Z" fill="black"/>
<path d="M205.5 40.5H198V48H205.5V40.5Z" fill="black"/>
<path d="M228 40.5H220.5V48H228V40.5Z" fill="black"/>
<path d="M243 40.5H235.5V48H243V40.5Z" fill="black"/>
<path d="M250.5 40.5H243V48H250.5V40.5Z" fill="black"/>
<path d="M258 40.5H250.5V48H258V40.5Z" fill="black"/>
<path d="M273 40.5H265.5V48H273V40.5Z" fill="black"/>
<path d="M33 48H25.5V55.5H33V48Z" fill="black"/>
<path d="M48 48H40.5V55.5H48V48Z" fill="black"/>
<path d="M55.5 48H48V55.5H55.5V48Z" fill="black"/>
<path d="M63 48H55.5V55.5H63V48Z" fill="black"/>
<path d="M78 48H70.5V55.5H78V48Z" fill="black"/>
<path d="M93 48H85.5V55.5H93V48Z" fill="black"/>
<path d="M100.5 48H93V55.5H100.5V48Z" fill="black"/>
<path d="M108 48H100.5V55.5H108V48Z" fill="black"/>
<path d="M123 48H115.5V55.5H123V48Z" fill="black"/>
<path d="M130.5 48H123V55.5H130.5V48Z" fill="black"/>
<path d="M138 48H130.5V55.5H138V48Z" fill="black"/>
<path d="M160.5 48H153V55.5H160.5V48Z" fill="black"/>
<path d="M175.5 48H168V55.5H175.5V48Z" fill="black"/>
<path d="M183 48H175.5V55.5H183V48Z" fill="black"/>
<path d="M198 48H190.5V55.5H198V48Z" fill="black"/>
<path d="M205.5 48H198V55.5H205.5V48Z" fill="black"/>
<path d="M213 48H205.5V55.5H213V48Z" fill="black"/>
<path d="M228 48H220.5V55.5H228V48Z" fill="black"/>
<path d="M243 48H235.5V55.5H243V48Z" fill="black"/>
<path d="M250.5 48H243V55.5H250.5V48Z" fill="black"/>
<path d="M258 48H250.5V55.5H258V48Z" fill="black"/>
<path d="M273 48H265.5V55.5H273V48Z" fill="black"/>
<path d="M33 55.5H25.5V63H33V55.5Z" fill="black"/>
<path d="M48 55.5H40.5V63H48V55.5Z" fill="black"/>
<path d="M55.5 55.5H48V63H55.5V55.5Z" fill="black"/>
<path d="M63 55.5H55.5V63H63V55.5Z" fill="black"/>
<path d="M78 55.5H70.5V63H78V55.5Z" fill="black"/>
<path d="M100.5 55.5H93V63H100.5V55.5Z" fill="black"/>
<path d="M153 55.5H145.5V63H153V55.5Z" fill="black"/>
<path d="M168 55.5H160.5V63H168V55.5Z" fill="black"/>
<path d="M175.5 55.5H168V63H175.5V55.5Z" fill="black"/>
<path d="M190.5 55.5H183V63H190.5V55.5Z" fill="black"/>
<path d="M205.5 55.5H198V63H205.5V55.5Z" fill="black"/>
<path d="M228 55.5H220.5V63H228V55.5Z" fill="black"/>
<path d="M243 55.5H235.5V63H243V55.5Z" fill="black"/>
<path d="M250.5 55.5H243V63H250.5V55.5Z" fill="black"/>
<path d="M258 55.5H250.5V63H258V55.5Z" fill="black"/>
<path d="M273 55.5H265.5V63H273V55.5Z" fill="black"/>
<path d="M33 63H25.5V70.5H33V63Z" fill="black"/>
<path d="M78 63H70.5V70.5H78V63Z" fill="black"/>
<path d="M93 63H85.5V70.5H93V63Z" fill="black"/>
<path d="M100.5 63H93V70.5H100.5V63Z" fill="black"/>
<path d="M115.5 63H108V70.5H115.5V63Z" fill="black"/>
<path d="M123 63H115.5V70.5H123V63Z" fill="black"/>
<path d="M138 63H130.5V70.5H138V63Z" fill="black"/>
<path d="M145.5 63H138V70.5H145.5V63Z" fill="black"/>
<path d="M183 63H175.5V70.5H183V63Z" fill="black"/>
<path d="M190.5 63H183V70.5H190.5V63Z" fill="black"/>
<path d="M198 63H190.5V70.5H198V63Z" fill="black"/>
<path d="M213 63H205.5V70.5H213V63Z" fill="black"/>
<path d="M228 63H220.5V70.5H228V63Z" fill="black"/>
<path d="M273 63H265.5V70.5H273V63Z" fill="black"/>
<path d="M33 70.5H25.5V78H33V70.5Z" fill="black"/>
<path d="M40.5 70.5H33V78H40.5V70.5Z" fill="black"/>
<path d="M48 70.5H40.5V78H48V70.5Z" fill="black"/>
<path d="M55.5 70.5H48V78H55.5V70.5Z" fill="black"/>
<path d="M63 70.5H55.5V78H63V70.5Z" fill="black"/>
<path d="M70.5 70.5H63V78H70.5V70.5Z" fill="black"/>
<path d="M78 70.5H70.5V78H78V70.5Z" fill="black"/>
<path d="M93 70.5H85.5V78H93V70.5Z" fill="black"/>
<path d="M108 70.5H100.5V78H108V70.5Z" fill="black"/>
<path d="M123 70.5H115.5V78H123V70.5Z" fill="black"/>
<path d="M138 70.5H130.5V78H138V70.5Z" fill="black"/>
<path d="M153 70.5H145.5V78H153V70.5Z" fill="black"/>
<path d="M168 70.5H160.5V78H168V70.5Z" fill="black"/>
<path d="M183 70.5H175.5V78H183V70.5Z" fill="black"/>
<path d="M198 70.5H190.5V78H198V70.5Z" fill="black"/>
<path d="M213 70.5H205.5V78H213V70.5Z" fill="black"/>
<path d="M228 70.5H220.5V78H228V70.5Z" fill="black"/>
<path d="M235.5 70.5H228V78H235.5V70.5Z" fill="black"/>
<path d="M243 70.5H235.5V78H243V70.5Z" fill="black"/>
<path d="M250.5 70.5H243V78H250.5V70.5Z" fill="black"/>
<path d="M258 70.5H250.5V78H258V70.5Z" fill="black"/>
<path d="M265.5 70.5H258V78H265.5V70.5Z" fill="black"/>
<path d="M273 70.5H265.5V78H273V70.5Z" fill="black"/>
<path d="M100.5 78H93V85.5H100.5V78Z" fill="black"/>
<path d="M108 78H100.5V85.5H108V78Z" fill="black"/>
<path d="M115.5 78H108V85.5H115.5V78Z" fill="black"/>
<path d="M138 78H130.5V85.5H138V78Z" fill="black"/>
<path d="M153 78H145.5V85.5H153V78Z" fill="black"/>
<path d="M168 78H160.5V85.5H168V78Z" fill="black"/>
<path d="M175.5 78H168V85.5H175.5V78Z" fill="black"/>
<path d="M190.5 78H183V85.5H190.5V78Z" fill="black"/>
<path d="M198 78H190.5V85.5H198V78Z" fill="black"/>
<path d="M33 85.5H25.5V93H33V85.5Z" fill="black"/>
<path d="M40.5 85.5H33V93H40.5V85.5Z" fill="black"/>
<path d="M48 85.5H40.5V93H48V85.5Z" fill="black"/>
<path d="M55.5 85.5H48V93H55.5V85.5Z" fill="black"/>
<path d="M63 85.5H55.5V93H63V85.5Z" fill="black"/>
<path d="M78 85.5H70.5V93H78V85.5Z" fill="black"/>
<path d="M85.5 85.5H78V93H85.5V85.5Z" fill="black"/>
<path d="M93 85.5H85.5V93H93V85.5Z" fill="black"/>
<path d="M100.5 85.5H93V93H100.5V85.5Z" fill="black"/>
<path d="M115.5 85.5H108V93H115.5V85.5Z" fill="black"/>
<path d="M145.5 85.5H138V93H145.5V85.5Z" fill="black"/>
<path d="M160.5 85.5H153V93H160.5V85.5Z" fill="black"/>
<path d="M168 85.5H160.5V93H168V85.5Z" fill="black"/>
<path d="M183 85.5H175.5V93H183V85.5Z" fill="black"/>
<path d="M220.5 85.5H213V93H220.5V85.5Z" fill="black"/>
<path d="M235.5 85.5H228V93H235.5V85.5Z" fill="black"/>
<path d="M250.5 85.5H243V93H250.5V85.5Z" fill="black"/>
<path d="M265.5 85.5H258V93H265.5V85.5Z" fill="black"/>
<path d="M33 93H25.5V100.5H33V93Z" fill="black"/>
<path d="M40.5 93H33V100.5H40.5V93Z" fill="black"/>
<path d="M48 93H40.5V100.5H48V93Z" fill="black"/>
<path d="M55.5 93H48V100.5H55.5V93Z" fill="black"/>
<path d="M63 93H55.5V100.5H63V93Z" fill="black"/>
<path d="M70.5 93H63V100.5H70.5V93Z" fill="black"/>
<path d="M108 93H100.5V100.5H108V93Z" fill="black"/>
<path d="M123 93H115.5V100.5H123V93Z" fill="black"/>
<path d="M130.5 93H123V100.5H130.5V93Z" fill="black"/>
<path d="M153 93H145.5V100.5H153V93Z" fill="black"/>
<path d="M160.5 93H153V100.5H160.5V93Z" fill="black"/>
<path d="M175.5 93H168V100.5H175.5V93Z" fill="black"/>
<path d="M183 93H175.5V100.5H183V93Z" fill="black"/>
<path d="M205.5 93H198V100.5H205.5V93Z" fill="black"/>
<path d="M228 93H220.5V100.5H228V93Z" fill="black"/>
<path d="M258 93H250.5V100.5H258V93Z" fill="black"/>
<path d="M265.5 93H258V100.5H265.5V93Z" fill="black"/>
<path d="M273 93H265.5V100.5H273V93Z" fill="black"/>
<path d="M48 100.5H40.5V108H48V100.5Z" fill="black"/>
<path d="M55.5 100.5H48V108H55.5V100.5Z" fill="black"/>
<path d="M70.5 100.5H63V108H70.5V100.5Z" fill="black"/>
<path d="M78 100.5H70.5V108H78V100.5Z" fill="black"/>
<path d="M93 100.5H85.5V108H93V100.5Z" fill="black"/>
<path d="M108 100.5H100.5V108H108V100.5Z" fill="black"/>
<path d="M130.5 100.5H123V108H130.5V100.5Z" fill="black"/>
<path d="M138 100.5H130.5V108H138V100.5Z" fill="black"/>
<path d="M145.5 100.5H138V108H145.5V100.5Z" fill="black"/>
<path d="M198 100.5H190.5V108H198V100.5Z" fill="black"/>
<path d="M220.5 100.5H213V108H220.5V100.5Z" fill="black"/>
<path d="M228 100.5H220.5V108H228V100.5Z" fill="black"/>
<path d="M243 100.5H235.5V108H243V100.5Z" fill="black"/>
<path d="M250.5 100.5H243V108H250.5V100.5Z" fill="black"/>
<path d="M265.5 100.5H258V108H265.5V100.5Z" fill="black"/>
<path d="M40.5 108H33V115.5H40.5V108Z" fill="black"/>
<path d="M85.5 108H78V115.5H85.5V108Z" fill="black"/>
<path d="M123 108H115.5V115.5H123V108Z" fill="black"/>
<path d="M130.5 108H123V115.5H130.5V108Z" fill="black"/>
<path d="M153 108H145.5V115.5H153V108Z" fill="black"/>
<path d="M183 108H175.5V115.5H183V108Z" fill="black"/>
<path d="M190.5 108H183V115.5H190.5V108Z" fill="black"/>
<path d="M198 108H190.5V115.5H198V108Z" fill="black"/>
<path d="M205.5 108H198V115.5H205.5V108Z" fill="black"/>
<path d="M213 108H205.5V115.5H213V108Z" fill="black"/>
<path d="M220.5 108H213V115.5H220.5V108Z" fill="black"/>
<path d="M228 108H220.5V115.5H228V108Z" fill="black"/>
<path d="M243 108H235.5V115.5H243V108Z" fill="black"/>
<path d="M258 108H250.5V115.5H258V108Z" fill="black"/>
<path d="M33 115.5H25.5V123H33V115.5Z" fill="black"/>
<path d="M40.5 115.5H33V123H40.5V115.5Z" fill="black"/>
<path d="M48 115.5H40.5V123H48V115.5Z" fill="black"/>
<path d="M63 115.5H55.5V123H63V115.5Z" fill="black"/>
<path d="M70.5 115.5H63V123H70.5V115.5Z" fill="black"/>
<path d="M78 115.5H70.5V123H78V115.5Z" fill="black"/>
<path d="M100.5 115.5H93V123H100.5V115.5Z" fill="black"/>
<path d="M108 115.5H100.5V123H108V115.5Z" fill="black"/>
<path d="M123 115.5H115.5V123H123V115.5Z" fill="black"/>
<path d="M138 115.5H130.5V123H138V115.5Z" fill="black"/>
<path d="M160.5 115.5H153V123H160.5V115.5Z" fill="black"/>
<path d="M175.5 115.5H168V123H175.5V115.5Z" fill="black"/>
<path d="M198 115.5H190.5V123H198V115.5Z" fill="black"/>
<path d="M220.5 115.5H213V123H220.5V115.5Z" fill="black"/>
<path d="M235.5 115.5H228V123H235.5V115.5Z" fill="black"/>
<path d="M243 115.5H235.5V123H243V115.5Z" fill="black"/>
<path d="M250.5 115.5H243V123H250.5V115.5Z" fill="black"/>
<path d="M33 123H25.5V130.5H33V123Z" fill="black"/>
<path d="M40.5 123H33V130.5H40.5V123Z" fill="black"/>
<path d="M48 123H40.5V130.5H48V123Z" fill="black"/>
<path d="M70.5 123H63V130.5H70.5V123Z" fill="black"/>
<path d="M100.5 123H93V130.5H100.5V123Z" fill="black"/>
<path d="M168 123H160.5V130.5H168V123Z" fill="black"/>
<path d="M175.5 123H168V130.5H175.5V123Z" fill="black"/>
<path d="M183 123H175.5V130.5H183V123Z" fill="black"/>
<path d="M190.5 123H183V130.5H190.5V123Z" fill="black"/>
<path d="M205.5 123H198V130.5H205.5V123Z" fill="black"/>
<path d="M228 123H220.5V130.5H228V123Z" fill="black"/>
<path d="M265.5 123H258V130.5H265.5V123Z" fill="black"/>
<path d="M273 123H265.5V130.5H273V123Z" fill="black"/>
<path d="M33 130.5H25.5V138H33V130.5Z" fill="black"/>
<path d="M55.5 130.5H48V138H55.5V130.5Z" fill="black"/>
<path d="M78 130.5H70.5V138H78V130.5Z" fill="black"/>
<path d="M93 130.5H85.5V138H93V130.5Z" fill="black"/>
<path d="M100.5 130.5H93V138H100.5V130.5Z" fill="black"/>
<path d="M115.5 130.5H108V138H115.5V130.5Z" fill="black"/>
<path d="M123 130.5H115.5V138H123V130.5Z" fill="black"/>
<path d="M145.5 130.5H138V138H145.5V130.5Z" fill="black"/>
<path d="M153 130.5H145.5V138H153V130.5Z" fill="black"/>
<path d="M160.5 130.5H153V138H160.5V130.5Z" fill="black"/>
<path d="M168 130.5H160.5V138H168V130.5Z" fill="black"/>
<path d="M183 130.5H175.5V138H183V130.5Z" fill="black"/>
<path d="M190.5 130.5H183V138H190.5V130.5Z" fill="black"/>
<path d="M220.5 130.5H213V138H220.5V130.5Z" fill="black"/>
<path d="M243 130.5H235.5V138H243V130.5Z" fill="black"/>
<path d="M265.5 130.5H258V138H265.5V130.5Z" fill="black"/>
<path d="M40.5 138H33V145.5H40.5V138Z" fill="black"/>
<path d="M48 138H40.5V145.5H48V138Z" fill="black"/>
<path d="M55.5 138H48V145.5H55.5V138Z" fill="black"/>
<path d="M115.5 138H108V145.5H115.5V138Z" fill="black"/>
<path d="M138 138H130.5V145.5H138V138Z" fill="black"/>
<path d="M145.5 138H138V145.5H145.5V138Z" fill="black"/>
<path d="M153 138H145.5V145.5H153V138Z" fill="black"/>
<path d="M190.5 138H183V145.5H190.5V138Z" fill="black"/>
<path d="M198 138H190.5V145.5H198V138Z" fill="black"/>
<path d="M205.5 138H198V145.5H205.5V138Z" fill="black"/>
<path d="M220.5 138H213V145.5H220.5V138Z" fill="black"/>
<path d="M228 138H220.5V145.5H228V138Z" fill="black"/>
<path d="M258 138H250.5V145.5H258V138Z" fill="black"/>
<path d="M48 145.5H40.5V153H48V145.5Z" fill="black"/>
<path d="M63 145.5H55.5V153H63V145.5Z" fill="black"/>
<path d="M78 145.5H70.5V153H78V145.5Z" fill="black"/>
<path d="M85.5 145.5H78V153H85.5V145.5Z" fill="black"/>
<path d="M115.5 145.5H108V153H115.5V145.5Z" fill="black"/>
<path d="M145.5 145.5H138V153H145.5V145.5Z" fill="black"/>
<path d="M160.5 145.5H153V153H160.5V145.5Z" fill="black"/>
<path d="M175.5 145.5H168V153H175.5V145.5Z" fill="black"/>
<path d="M198 145.5H190.5V153H198V145.5Z" fill="black"/>
<path d="M205.5 145.5H198V153H205.5V145.5Z" fill="black"/>
<path d="M213 145.5H205.5V153H213V145.5Z" fill="black"/>
<path d="M220.5 145.5H213V153H220.5V145.5Z" fill="black"/>
<path d="M235.5 145.5H228V153H235.5V145.5Z" fill="black"/>
<path d="M243 145.5H235.5V153H243V145.5Z" fill="black"/>
<path d="M265.5 145.5H258V153H265.5V145.5Z" fill="black"/>
<path d="M40.5 153H33V160.5H40.5V153Z" fill="black"/>
<path d="M55.5 153H48V160.5H55.5V153Z" fill="black"/>
<path d="M63 153H55.5V160.5H63V153Z" fill="black"/>
<path d="M85.5 153H78V160.5H85.5V153Z" fill="black"/>
<path d="M93 153H85.5V160.5H93V153Z" fill="black"/>
<path d="M108 153H100.5V160.5H108V153Z" fill="black"/>
<path d="M123 153H115.5V160.5H123V153Z" fill="black"/>
<path d="M130.5 153H123V160.5H130.5V153Z" fill="black"/>
<path d="M138 153H130.5V160.5H138V153Z" fill="black"/>
<path d="M153 153H145.5V160.5H153V153Z" fill="black"/>
<path d="M160.5 153H153V160.5H160.5V153Z" fill="black"/>
<path d="M168 153H160.5V160.5H168V153Z" fill="black"/>
<path d="M175.5 153H168V160.5H175.5V153Z" fill="black"/>
<path d="M183 153H175.5V160.5H183V153Z" fill="black"/>
<path d="M190.5 153H183V160.5H190.5V153Z" fill="black"/>
<path d="M198 153H190.5V160.5H198V153Z" fill="black"/>
<path d="M205.5 153H198V160.5H205.5V153Z" fill="black"/>
<path d="M213 153H205.5V160.5H213V153Z" fill="black"/>
<path d="M228 153H220.5V160.5H228V153Z" fill="black"/>
<path d="M250.5 153H243V160.5H250.5V153Z" fill="black"/>
<path d="M265.5 153H258V160.5H265.5V153Z" fill="black"/>
<path d="M273 153H265.5V160.5H273V153Z" fill="black"/>
<path d="M40.5 160.5H33V168H40.5V160.5Z" fill="black"/>
<path d="M48 160.5H40.5V168H48V160.5Z" fill="black"/>
<path d="M70.5 160.5H63V168H70.5V160.5Z" fill="black"/>
<path d="M78 160.5H70.5V168H78V160.5Z" fill="black"/>
<path d="M85.5 160.5H78V168H85.5V160.5Z" fill="black"/>
<path d="M100.5 160.5H93V168H100.5V160.5Z" fill="black"/>
<path d="M108 160.5H100.5V168H108V160.5Z" fill="black"/>
<path d="M130.5 160.5H123V168H130.5V160.5Z" fill="black"/>
<path d="M138 160.5H130.5V168H138V160.5Z" fill="black"/>
<path d="M145.5 160.5H138V168H145.5V160.5Z" fill="black"/>
<path d="M160.5 160.5H153V168H160.5V160.5Z" fill="black"/>
<path d="M183 160.5H175.5V168H183V160.5Z" fill="black"/>
<path d="M190.5 160.5H183V168H190.5V160.5Z" fill="black"/>
<path d="M220.5 160.5H213V168H220.5V160.5Z" fill="black"/>
<path d="M228 160.5H220.5V168H228V160.5Z" fill="black"/>
<path d="M235.5 160.5H228V168H235.5V160.5Z" fill="black"/>
<path d="M243 160.5H235.5V168H243V160.5Z" fill="black"/>
<path d="M250.5 160.5H243V168H250.5V160.5Z" fill="black"/>
<path d="M265.5 160.5H258V168H265.5V160.5Z" fill="black"/>
<path d="M40.5 168H33V175.5H40.5V168Z" fill="black"/>
<path d="M85.5 168H78V175.5H85.5V168Z" fill="black"/>
<path d="M93 168H85.5V175.5H93V168Z" fill="black"/>
<path d="M123 168H115.5V175.5H123V168Z" fill="black"/>
<path d="M130.5 168H123V175.5H130.5V168Z" fill="black"/>
<path d="M145.5 168H138V175.5H145.5V168Z" fill="black"/>
<path d="M153 168H145.5V175.5H153V168Z" fill="black"/>
<path d="M190.5 168H183V175.5H190.5V168Z" fill="black"/>
<path d="M243 168H235.5V175.5H243V168Z" fill="black"/>
<path d="M258 168H250.5V175.5H258V168Z" fill="black"/>
<path d="M33 175.5H25.5V183H33V175.5Z" fill="black"/>
<path d="M70.5 175.5H63V183H70.5V175.5Z" fill="black"/>
<path d="M78 175.5H70.5V183H78V175.5Z" fill="black"/>
<path d="M85.5 175.5H78V183H85.5V175.5Z" fill="black"/>
<path d="M93 175.5H85.5V183H93V175.5Z" fill="black"/>
<path d="M100.5 175.5H93V183H100.5V175.5Z" fill="black"/>
<path d="M108 175.5H100.5V183H108V175.5Z" fill="black"/>
<path d="M123 175.5H115.5V183H123V175.5Z" fill="black"/>
<path d="M138 175.5H130.5V183H138V175.5Z" fill="black"/>
<path d="M160.5 175.5H153V183H160.5V175.5Z" fill="black"/>
<path d="M198 175.5H190.5V183H198V175.5Z" fill="black"/>
<path d="M205.5 175.5H198V183H205.5V175.5Z" fill="black"/>
<path d="M213 175.5H205.5V183H213V175.5Z" fill="black"/>
<path d="M220.5 175.5H213V183H220.5V175.5Z" fill="black"/>
<path d="M235.5 175.5H228V183H235.5V175.5Z" fill="black"/>
<path d="M243 175.5H235.5V183H243V175.5Z" fill="black"/>
<path d="M265.5 175.5H258V183H265.5V175.5Z" fill="black"/>
<path d="M33 183H25.5V190.5H33V183Z" fill="black"/>
<path d="M48 183H40.5V190.5H48V183Z" fill="black"/>
<path d="M70.5 183H63V190.5H70.5V183Z" fill="black"/>
<path d="M100.5 183H93V190.5H100.5V183Z" fill="black"/>
<path d="M153 183H145.5V190.5H153V183Z" fill="black"/>
<path d="M160.5 183H153V190.5H160.5V183Z" fill="black"/>
<path d="M168 183H160.5V190.5H168V183Z" fill="black"/>
<path d="M175.5 183H168V190.5H175.5V183Z" fill="black"/>
<path d="M183 183H175.5V190.5H183V183Z" fill="black"/>
<path d="M190.5 183H183V190.5H190.5V183Z" fill="black"/>
<path d="M198 183H190.5V190.5H198V183Z" fill="black"/>
<path d="M205.5 183H198V190.5H205.5V183Z" fill="black"/>
<path d="M228 183H220.5V190.5H228V183Z" fill="black"/>
<path d="M235.5 183H228V190.5H235.5V183Z" fill="black"/>
<path d="M250.5 183H243V190.5H250.5V183Z" fill="black"/>
<path d="M265.5 183H258V190.5H265.5V183Z" fill="black"/>
<path d="M273 183H265.5V190.5H273V183Z" fill="black"/>
<path d="M33 190.5H25.5V198H33V190.5Z" fill="black"/>
<path d="M48 190.5H40.5V198H48V190.5Z" fill="black"/>
<path d="M55.5 190.5H48V198H55.5V190.5Z" fill="black"/>
<path d="M78 190.5H70.5V198H78V190.5Z" fill="black"/>
<path d="M93 190.5H85.5V198H93V190.5Z" fill="black"/>
<path d="M100.5 190.5H93V198H100.5V190.5Z" fill="black"/>
<path d="M108 190.5H100.5V198H108V190.5Z" fill="black"/>
<path d="M115.5 190.5H108V198H115.5V190.5Z" fill="black"/>
<path d="M123 190.5H115.5V198H123V190.5Z" fill="black"/>
<path d="M145.5 190.5H138V198H145.5V190.5Z" fill="black"/>
<path d="M153 190.5H145.5V198H153V190.5Z" fill="black"/>
<path d="M190.5 190.5H183V198H190.5V190.5Z" fill="black"/>
<path d="M220.5 190.5H213V198H220.5V190.5Z" fill="black"/>
<path d="M250.5 190.5H243V198H250.5V190.5Z" fill="black"/>
<path d="M265.5 190.5H258V198H265.5V190.5Z" fill="black"/>
<path d="M33 198H25.5V205.5H33V198Z" fill="black"/>
<path d="M55.5 198H48V205.5H55.5V198Z" fill="black"/>
<path d="M70.5 198H63V205.5H70.5V198Z" fill="black"/>
<path d="M108 198H100.5V205.5H108V198Z" fill="black"/>
<path d="M115.5 198H108V205.5H115.5V198Z" fill="black"/>
<path d="M138 198H130.5V205.5H138V198Z" fill="black"/>
<path d="M153 198H145.5V205.5H153V198Z" fill="black"/>
<path d="M183 198H175.5V205.5H183V198Z" fill="black"/>
<path d="M190.5 198H183V205.5H190.5V198Z" fill="black"/>
<path d="M205.5 198H198V205.5H205.5V198Z" fill="black"/>
<path d="M220.5 198H213V205.5H220.5V198Z" fill="black"/>
<path d="M235.5 198H228V205.5H235.5V198Z" fill="black"/>
<path d="M243 198H235.5V205.5H243V198Z" fill="black"/>
<path d="M250.5 198H243V205.5H250.5V198Z" fill="black"/>
<path d="M258 198H250.5V205.5H258V198Z" fill="black"/>
<path d="M33 205.5H25.5V213H33V205.5Z" fill="black"/>
<path d="M48 205.5H40.5V213H48V205.5Z" fill="black"/>
<path d="M55.5 205.5H48V213H55.5V205.5Z" fill="black"/>
<path d="M70.5 205.5H63V213H70.5V205.5Z" fill="black"/>
<path d="M78 205.5H70.5V213H78V205.5Z" fill="black"/>
<path d="M93 205.5H85.5V213H93V205.5Z" fill="black"/>
<path d="M108 205.5H100.5V213H108V205.5Z" fill="black"/>
<path d="M115.5 205.5H108V213H115.5V205.5Z" fill="black"/>
<path d="M160.5 205.5H153V213H160.5V205.5Z" fill="black"/>
<path d="M168 205.5H160.5V213H168V205.5Z" fill="black"/>
<path d="M183 205.5H175.5V213H183V205.5Z" fill="black"/>
<path d="M198 205.5H190.5V213H198V205.5Z" fill="black"/>
<path d="M205.5 205.5H198V213H205.5V205.5Z" fill="black"/>
<path d="M213 205.5H205.5V213H213V205.5Z" fill="black"/>
<path d="M220.5 205.5H213V213H220.5V205.5Z" fill="black"/>
<path d="M228 205.5H220.5V213H228V205.5Z" fill="black"/>
<path d="M235.5 205.5H228V213H235.5V205.5Z" fill="black"/>
<path d="M243 205.5H235.5V213H243V205.5Z" fill="black"/>
<path d="M250.5 205.5H243V213H250.5V205.5Z" fill="black"/>
<path d="M273 205.5H265.5V213H273V205.5Z" fill="black"/>
<path d="M93 213H85.5V220.5H93V213Z" fill="black"/>
<path d="M100.5 213H93V220.5H100.5V213Z" fill="black"/>
<path d="M108 213H100.5V220.5H108V213Z" fill="black"/>
<path d="M123 213H115.5V220.5H123V213Z" fill="black"/>
<path d="M130.5 213H123V220.5H130.5V213Z" fill="black"/>
<path d="M138 213H130.5V220.5H138V213Z" fill="black"/>
<path d="M153 213H145.5V220.5H153V213Z" fill="black"/>
<path d="M160.5 213H153V220.5H160.5V213Z" fill="black"/>
<path d="M168 213H160.5V220.5H168V213Z" fill="black"/>
<path d="M175.5 213H168V220.5H175.5V213Z" fill="black"/>
<path d="M183 213H175.5V220.5H183V213Z" fill="black"/>
<path d="M190.5 213H183V220.5H190.5V213Z" fill="black"/>
<path d="M198 213H190.5V220.5H198V213Z" fill="black"/>
<path d="M213 213H205.5V220.5H213V213Z" fill="black"/>
<path d="M243 213H235.5V220.5H243V213Z" fill="black"/>
<path d="M258 213H250.5V220.5H258V213Z" fill="black"/>
<path d="M273 213H265.5V220.5H273V213Z" fill="black"/>
<path d="M33 220.5H25.5V228H33V220.5Z" fill="black"/>
<path d="M40.5 220.5H33V228H40.5V220.5Z" fill="black"/>
<path d="M48 220.5H40.5V228H48V220.5Z" fill="black"/>
<path d="M55.5 220.5H48V228H55.5V220.5Z" fill="black"/>
<path d="M63 220.5H55.5V228H63V220.5Z" fill="black"/>
<path d="M70.5 220.5H63V228H70.5V220.5Z" fill="black"/>
<path d="M78 220.5H70.5V228H78V220.5Z" fill="black"/>
<path d="M93 220.5H85.5V228H93V220.5Z" fill="black"/>
<path d="M100.5 220.5H93V228H100.5V220.5Z" fill="black"/>
<path d="M130.5 220.5H123V228H130.5V220.5Z" fill="black"/>
<path d="M138 220.5H130.5V228H138V220.5Z" fill="black"/>
<path d="M145.5 220.5H138V228H145.5V220.5Z" fill="black"/>
<path d="M153 220.5H145.5V228H153V220.5Z" fill="black"/>
<path d="M160.5 220.5H153V228H160.5V220.5Z" fill="black"/>
<path d="M183 220.5H175.5V228H183V220.5Z" fill="black"/>
<path d="M205.5 220.5H198V228H205.5V220.5Z" fill="black"/>
<path d="M213 220.5H205.5V228H213V220.5Z" fill="black"/>
<path d="M228 220.5H220.5V228H228V220.5Z" fill="black"/>
<path d="M243 220.5H235.5V228H243V220.5Z" fill="black"/>
<path d="M258 220.5H250.5V228H258V220.5Z" fill="black"/>
<path d="M265.5 220.5H258V228H265.5V220.5Z" fill="black"/>
<path d="M33 228H25.5V235.5H33V228Z" fill="black"/>
<path d="M78 228H70.5V235.5H78V228Z" fill="black"/>
<path d="M123 228H115.5V235.5H123V228Z" fill="black"/>
<path d="M130.5 228H123V235.5H130.5V228Z" fill="black"/>
<path d="M145.5 228H138V235.5H145.5V228Z" fill="black"/>
<path d="M168 228H160.5V235.5H168V228Z" fill="black"/>
<path d="M183 228H175.5V235.5H183V228Z" fill="black"/>
<path d="M190.5 228H183V235.5H190.5V228Z" fill="black"/>
<path d="M198 228H190.5V235.5H198V228Z" fill="black"/>
<path d="M205.5 228H198V235.5H205.5V228Z" fill="black"/>
<path d="M213 228H205.5V235.5H213V228Z" fill="black"/>
<path d="M243 228H235.5V235.5H243V228Z" fill="black"/>
<path d="M250.5 228H243V235.5H250.5V228Z" fill="black"/>
<path d="M258 228H250.5V235.5H258V228Z" fill="black"/>
<path d="M265.5 228H258V235.5H265.5V228Z" fill="black"/>
<path d="M33 235.5H25.5V243H33V235.5Z" fill="black"/>
<path d="M48 235.5H40.5V243H48V235.5Z" fill="black"/>
<path d="M55.5 235.5H48V243H55.5V235.5Z" fill="black"/>
<path d="M63 235.5H55.5V243H63V235.5Z" fill="black"/>
<path d="M78 235.5H70.5V243H78V235.5Z" fill="black"/>
<path d="M93 235.5H85.5V243H93V235.5Z" fill="black"/>
<path d="M108 235.5H100.5V243H108V235.5Z" fill="black"/>
<path d="M123 235.5H115.5V243H123V235.5Z" fill="black"/>
<path d="M138 235.5H130.5V243H138V235.5Z" fill="black"/>
<path d="M160.5 235.5H153V243H160.5V235.5Z" fill="black"/>
<path d="M213 235.5H205.5V243H213V235.5Z" fill="black"/>
<path d="M220.5 235.5H213V243H220.5V235.5Z" fill="black"/>
<path d="M228 235.5H220.5V243H228V235.5Z" fill="black"/>
<path d="M235.5 235.5H228V243H235.5V235.5Z" fill="black"/>
<path d="M243 235.5H235.5V243H243V235.5Z" fill="black"/>
<path d="M265.5 235.5H258V243H265.5V235.5Z" fill="black"/>
<path d="M273 235.5H265.5V243H273V235.5Z" fill="black"/>
<path d="M33 243H25.5V250.5H33V243Z" fill="black"/>
<path d="M48 243H40.5V250.5H48V243Z" fill="black"/>
<path d="M55.5 243H48V250.5H55.5V243Z" fill="black"/>
<path d="M63 243H55.5V250.5H63V243Z" fill="black"/>
<path d="M78 243H70.5V250.5H78V243Z" fill="black"/>
<path d="M93 243H85.5V250.5H93V243Z" fill="black"/>
<path d="M108 243H100.5V250.5H108V243Z" fill="black"/>
<path d="M153 243H145.5V250.5H153V243Z" fill="black"/>
<path d="M160.5 243H153V250.5H160.5V243Z" fill="black"/>
<path d="M168 243H160.5V250.5H168V243Z" fill="black"/>
<path d="M175.5 243H168V250.5H175.5V243Z" fill="black"/>
<path d="M183 243H175.5V250.5H183V243Z" fill="black"/>
<path d="M205.5 243H198V250.5H205.5V243Z" fill="black"/>
<path d="M243 243H235.5V250.5H243V243Z" fill="black"/>
<path d="M250.5 243H243V250.5H250.5V243Z" fill="black"/>
<path d="M265.5 243H258V250.5H265.5V243Z" fill="black"/>
<path d="M273 243H265.5V250.5H273V243Z" fill="black"/>
<path d="M33 250.5H25.5V258H33V250.5Z" fill="black"/>
<path d="M48 250.5H40.5V258H48V250.5Z" fill="black"/>
<path d="M55.5 250.5H48V258H55.5V250.5Z" fill="black"/>
<path d="M63 250.5H55.5V258H63V250.5Z" fill="black"/>
<path d="M78 250.5H70.5V258H78V250.5Z" fill="black"/>
<path d="M93 250.5H85.5V258H93V250.5Z" fill="black"/>
<path d="M108 250.5H100.5V258H108V250.5Z" fill="black"/>
<path d="M115.5 250.5H108V258H115.5V250.5Z" fill="black"/>
<path d="M123 250.5H115.5V258H123V250.5Z" fill="black"/>
<path d="M145.5 250.5H138V258H145.5V250.5Z" fill="black"/>
<path d="M160.5 250.5H153V258H160.5V250.5Z" fill="black"/>
<path d="M198 250.5H190.5V258H198V250.5Z" fill="black"/>
<path d="M213 250.5H205.5V258H213V250.5Z" fill="black"/>
<path d="M228 250.5H220.5V258H228V250.5Z" fill="black"/>
<path d="M258 250.5H250.5V258H258V250.5Z" fill="black"/>
<path d="M33 258H25.5V265.5H33V258Z" fill="black"/>
<path d="M78 258H70.5V265.5H78V258Z" fill="black"/>
<path d="M93 258H85.5V265.5H93V258Z" fill="black"/>
<path d="M100.5 258H93V265.5H100.5V258Z" fill="black"/>
<path d="M108 258H100.5V265.5H108V258Z" fill="black"/>
<path d="M115.5 258H108V265.5H115.5V258Z" fill="black"/>
<path d="M138 258H130.5V265.5H138V258Z" fill="black"/>
<path d="M183 258H175.5V265.5H183V258Z" fill="black"/>
<path d="M190.5 258H183V265.5H190.5V258Z" fill="black"/>
<path d="M198 258H190.5V265.5H198V258Z" fill="black"/>
<path d="M220.5 258H213V265.5H220.5V258Z" fill="black"/>
<path d="M228 258H220.5V265.5H228V258Z" fill="black"/>
<path d="M250.5 258H243V265.5H250.5V258Z" fill="black"/>
<path d="M258 258H250.5V265.5H258V258Z" fill="black"/>
<path d="M33 265.5H25.5V273H33V265.5Z" fill="black"/>
<path d="M40.5 265.5H33V273H40.5V265.5Z" fill="black"/>
<path d="M48 265.5H40.5V273H48V265.5Z" fill="black"/>
<path d="M55.5 265.5H48V273H55.5V265.5Z" fill="black"/>
<path d="M63 265.5H55.5V273H63V265.5Z" fill="black"/>
<path d="M70.5 265.5H63V273H70.5V265.5Z" fill="black"/>
<path d="M78 265.5H70.5V273H78V265.5Z" fill="black"/>
<path d="M93 265.5H85.5V273H93V265.5Z" fill="black"/>
<path d="M100.5 265.5H93V273H100.5V265.5Z" fill="black"/>
<path d="M115.5 265.5H108V273H115.5V265.5Z" fill="black"/>
<path d="M145.5 265.5H138V273H145.5V265.5Z" fill="black"/>
<path d="M153 265.5H145.5V273H153V265.5Z" fill="black"/>
<path d="M160.5 265.5H153V273H160.5V265.5Z" fill="black"/>
<path d="M198 265.5H190.5V273H198V265.5Z" fill="black"/>
<path d="M205.5 265.5H198V273H205.5V265.5Z" fill="black"/>
<path d="M213 265.5H205.5V273H213V265.5Z" fill="black"/>
<path d="M228 265.5H220.5V273H228V265.5Z" fill="black"/>
<path d="M235.5 265.5H228V273H235.5V265.5Z" fill="black"/>
<path d="M265.5 265.5H258V273H265.5V265.5Z" fill="black"/>
</svg>
